<svg width="70" height="70" viewBox="0 0 70 70" fill="none" xmlns="http://www.w3.org/2000/svg">
<path d="M26 5.19615C31.5692 1.98076 38.4308 1.98076 44 5.19615L56.3109 12.3038C61.8801 15.5192 65.3109 21.4615 65.3109 27.8923V42.1077C65.3109 48.5385 61.8801 54.4808 56.3109 57.6962L44 64.8038C38.4308 68.0192 31.5692 68.0192 26 64.8038L13.6891 57.6962C8.11989 54.4808 4.68911 48.5385 4.68911 42.1077V27.8923C4.68911 21.4615 8.11989 15.5192 13.6891 12.3038L26 5.19615Z" fill="#FDE188"/>
<path d="M26 10.4462C31.5692 7.23076 38.4308 7.23076 44 10.4462L51.7643 14.9288C57.3335 18.1442 60.7643 24.0865 60.7643 30.5173V39.4827C60.7643 45.9135 57.3335 51.8558 51.7643 55.0711L44 59.5538C38.4308 62.7692 31.5692 62.7692 26 59.5538L18.2357 55.0711C12.6665 51.8558 9.23574 45.9135 9.23574 39.4827V30.5173C9.23574 24.0865 12.6665 18.1442 18.2357 14.9288L26 10.4462Z" fill="#FFD650"/>
<path d="M27.4998 15.9968C32.1408 13.3173 37.8588 13.3173 42.4998 15.9968L47.7071 19.0032C52.3481 21.6827 55.2071 26.6346 55.2071 31.9935V38.0064C55.2071 43.3654 52.3481 48.3173 47.7071 50.9968L42.4998 54.0032C37.8588 56.6827 32.1409 56.6827 27.4998 54.0032L22.2926 50.9968C17.6516 48.3173 14.7926 43.3654 14.7926 38.0064V31.9936C14.7926 26.6346 17.6516 21.6827 22.2926 19.0032L27.4998 15.9968Z" fill="#FFC300"/>
<rect width="2.8349" height="15.2376" rx="1.41745" transform="matrix(1 0 0.00270212 0.999996 33.8335 24.5)" fill="white"/>
<rect width="2.8349" height="2.97058" rx="1.41745" transform="matrix(1 0 0.00270212 0.999996 33.8335 42)" fill="white"/>
</svg>
